<svg width="85" height="104" viewBox="0 0 85 104" fill="none" xmlns="http://www.w3.org/2000/svg">
<path d="M62.5056 45.9647C61.2646 44.2624 57.2908 38.6264 55.029 33.2842C54.0659 31.0136 53.4063 28.7947 53.4063 26.9551L53.3953 26.9585C53.0867 22.7968 50.3531 19.2974 46.5655 17.8081C47.1954 17.4995 47.8014 17.0993 48.3114 16.5651C50.6013 14.1673 50.1364 10.0988 50.1364 10.0988C50.1364 10.0988 45.9552 9.91495 43.6662 12.3153C43.1281 12.876 42.7456 13.5341 42.4711 14.2072V8.17191H40.0392L40.9045 17.1633C35.8776 17.883 31.971 21.939 31.603 26.9676L31.563 26.956C31.563 28.8022 30.8949 31.0311 29.9268 33.31C27.3921 39.2796 22.7392 45.6061 22.151 46.3923C22.1493 46.3965 22.1442 46.4015 22.1425 46.4056C22.1085 46.4497 22.0847 46.4822 22.0847 46.4822H22.0864C20.428 48.687 19.4489 51.4109 19.4489 54.3579C19.4489 54.5176 19.4667 54.6707 19.4735 54.828C19.5339 56.5585 19.9248 58.2042 20.598 59.7043C23.7243 68.6134 32.3374 75.0281 42.5 75.0281C52.6626 75.0281 61.2782 68.6134 64.4011 59.701C65.076 58.2001 65.4653 56.5552 65.5273 54.8271C65.5316 54.6699 65.552 54.5168 65.552 54.3571C65.552 51.1738 64.4096 48.2527 62.5056 45.9647Z" fill="white"/>
</svg>
